<svg width="20" height="20" viewBox="0 0 20 20" fill="none" xmlns="http://www.w3.org/2000/svg">
<path d="M19.2863 0H11.4294C11.24 4.18515e-05 11.0584 0.0753327 10.9245 0.209299L0.21047 10.9233C-0.0686381 11.2021 -0.0688892 11.6543 0.209926 11.9334C0.210093 11.9336 0.210302 11.9338 0.21047 11.934L8.06738 19.7909C8.34632 20.0697 8.79844 20.0697 9.07734 19.7909L19.7913 9.07688C19.9255 8.94279 20.0008 8.76086 20.0006 8.57119V0.71428C20.0006 0.319787 19.6808 0 19.2863 0ZM15.0008 6.42839C14.2118 6.42839 13.5722 5.78882 13.5722 4.99988C13.5722 4.21093 14.2118 3.57136 15.0008 3.57136C15.7897 3.57136 16.4293 4.21093 16.4293 4.99988C16.4293 5.78882 15.7897 6.42839 15.0008 6.42839Z" fill="#FF5043"/>
</svg>
