<svg width="120" height="20" viewBox="0 0 120 20" fill="none" xmlns="http://www.w3.org/2000/svg">
<g clip-path="url(#clip0)">
<path d="M19.2863 0H11.4294C11.24 4.18515e-05 11.0584 0.0753327 10.9245 0.209299L0.21047 10.9233C-0.0686381 11.2021 -0.0688892 11.6543 0.209926 11.9334C0.210093 11.9336 0.210302 11.9338 0.21047 11.934L8.06738 19.7909C8.34632 20.0697 8.79844 20.0697 9.07734 19.7909L19.7913 9.07688C19.9255 8.94279 20.0008 8.76086 20.0006 8.57119V0.71428C20.0006 0.319787 19.6808 0 19.2863 0ZM15.0008 6.42839C14.2118 6.42839 13.5722 5.78882 13.5722 4.99988C13.5722 4.21093 14.2118 3.57136 15.0008 3.57136C15.7897 3.57136 16.4293 4.21093 16.4293 4.99988C16.4293 5.78882 15.7897 6.42839 15.0008 6.42839Z" fill="#FF5043"/>
</g>
<path d="M39.8182 8.14062H42.6307C42.2727 5.55185 39.9908 3.73011 37.0312 3.73011C33.5732 3.73011 30.9077 6.22301 30.9077 10.4673C30.9077 14.6094 33.4006 17.179 37.0888 17.179C40.3935 17.179 42.7521 15.0888 42.7521 11.6435V9.99432H37.2741V12.0781H40.0866C40.0483 13.7017 38.9425 14.7308 37.1016 14.7308C35.0241 14.7308 33.7138 13.1776 33.7138 10.4418C33.7138 7.71875 35.0753 6.17827 37.076 6.17827C38.5014 6.17827 39.4666 6.91335 39.8182 8.14062ZM49.0744 17.1918C51.5034 17.1918 53.1398 16.0092 53.5233 14.1875L51.0048 14.0213C50.73 14.7692 50.0269 15.1591 49.1192 15.1591C47.7577 15.1591 46.8948 14.2578 46.8948 12.794V12.7876H53.5808V12.0398C53.5808 8.70312 51.5609 7.05398 48.9658 7.05398C46.0766 7.05398 44.2037 9.10582 44.2037 12.1357C44.2037 15.2486 46.051 17.1918 49.0744 17.1918ZM46.8948 11.1001C46.9523 9.98153 47.8024 9.08665 49.0105 9.08665C50.193 9.08665 51.0112 9.9304 51.0176 11.1001H46.8948ZM60.4001 7.18182H58.5528V4.82955H55.8298V7.18182H54.4875V9.22727H55.8298V14.3409C55.817 16.2649 57.1274 17.2173 59.1025 17.1342C59.8057 17.1087 60.3042 16.968 60.5791 16.8786L60.1508 14.8523C60.0166 14.8778 59.729 14.9418 59.4733 14.9418C58.9299 14.9418 58.5528 14.7372 58.5528 13.983V9.22727H60.4001V7.18182ZM78.0609 10.4545C78.0609 6.17188 75.4018 3.73011 71.9309 3.73011C68.4409 3.73011 65.801 6.17188 65.801 10.4545C65.801 14.718 68.4409 17.179 71.9309 17.179C75.4018 17.179 78.0609 14.7372 78.0609 10.4545ZM75.2548 10.4545C75.2548 13.2287 73.938 14.7308 71.9309 14.7308C69.9174 14.7308 68.6071 13.2287 68.6071 10.4545C68.6071 7.6804 69.9174 6.17827 71.9309 6.17827C73.938 6.17827 75.2548 7.6804 75.2548 10.4545ZM85.1598 7.18182H83.2103V6.52344C83.2103 5.85866 83.4787 5.46875 84.2777 5.46875C84.6037 5.46875 84.9361 5.53906 85.1534 5.60938L85.6328 3.56392C85.2941 3.46165 84.5462 3.29545 83.7088 3.29545C81.8615 3.29545 80.4872 4.33736 80.4872 6.4723V7.18182H79.1002V9.22727H80.4872V17H83.2103V9.22727H85.1598V7.18182ZM91.9232 7.18182H89.9736V6.52344C89.9736 5.85866 90.2421 5.46875 91.0411 5.46875C91.3671 5.46875 91.6995 5.53906 91.9168 5.60938L92.3962 3.56392C92.0574 3.46165 91.3096 3.29545 90.4722 3.29545C88.6249 3.29545 87.2506 4.33736 87.2506 6.4723V7.18182H85.8635V9.22727H87.2506V17H89.9736V9.22727H91.9232V7.18182ZM97.5296 17.1918C99.9586 17.1918 101.595 16.0092 101.978 14.1875L99.46 14.0213C99.1851 14.7692 98.482 15.1591 97.5743 15.1591C96.2128 15.1591 95.3499 14.2578 95.3499 12.794V12.7876H102.036V12.0398C102.036 8.70312 100.016 7.05398 97.4209 7.05398C94.5317 7.05398 92.6589 9.10582 92.6589 12.1357C92.6589 15.2486 94.5062 17.1918 97.5296 17.1918ZM95.3499 11.1001C95.4074 9.98153 96.2576 9.08665 97.4657 9.08665C98.6482 9.08665 99.4664 9.9304 99.4728 11.1001H95.3499ZM103.633 17H106.356V11.4453C106.356 10.2372 107.238 9.40625 108.44 9.40625C108.817 9.40625 109.335 9.47017 109.59 9.55327V7.13707C109.347 7.07955 109.009 7.04119 108.734 7.04119C107.634 7.04119 106.733 7.6804 106.375 8.89489H106.273V7.18182H103.633V17ZM118.987 9.98153C118.744 8.17259 117.287 7.05398 114.807 7.05398C112.295 7.05398 110.639 8.21733 110.646 10.1094C110.639 11.5795 111.566 12.532 113.484 12.9155L115.184 13.2543C116.041 13.4268 116.43 13.7401 116.443 14.2322C116.43 14.8139 115.798 15.2294 114.845 15.2294C113.874 15.2294 113.228 14.8139 113.062 14.0149L110.384 14.1555C110.639 16.0348 112.237 17.1918 114.839 17.1918C117.383 17.1918 119.205 15.8942 119.211 13.9574C119.205 12.5384 118.278 11.6882 116.373 11.2983L114.596 10.9403C113.682 10.7422 113.343 10.429 113.349 9.95597C113.343 9.3679 114.008 8.98438 114.852 8.98438C115.798 8.98438 116.36 9.50213 116.494 10.1349L118.987 9.98153Z" fill="#181A27"/>
<defs>
<clipPath id="clip0">
<rect width="20" height="20" fill="white"/>
</clipPath>
</defs>
</svg>
