<svg width="19" height="12" viewBox="0 0 19 12" fill="none" xmlns="http://www.w3.org/2000/svg">
<path d="M16.2351 7.52112C16.8457 8.16289 17.4897 8.76546 18.037 9.47108C18.2785 9.78468 18.5085 10.1084 18.6833 10.4724C18.9317 10.9898 18.7063 11.5588 18.2751 11.5902L15.5957 11.5879C14.9034 11.6506 14.3526 11.3505 13.888 10.842C13.5177 10.4354 13.1739 10.002 12.8162 9.58308C12.6762 9.40973 12.5139 9.25464 12.3332 9.12163C11.9687 8.86627 11.6513 8.94355 11.442 9.3546C11.2281 9.77236 11.1798 10.2349 11.1591 10.6997C11.1304 11.3785 10.9406 11.5577 10.3059 11.5879C8.95122 11.6574 7.66557 11.4367 6.47076 10.7009C5.4174 10.0535 4.60093 9.13843 3.8891 8.10241C2.5057 6.08525 1.44659 3.86873 0.493276 1.58949C0.278234 1.07652 0.434628 0.800992 0.962459 0.792032C1.8367 0.773924 2.71124 0.773178 3.58551 0.789792C3.94085 0.795392 4.17544 1.0138 4.31344 1.37556C4.78607 2.62663 5.3645 3.81721 6.09127 4.92155C6.28562 5.215 6.48226 5.50844 6.764 5.71565C7.07449 5.94413 7.31138 5.86797 7.45742 5.49612C7.54942 5.2598 7.59082 5.00555 7.61152 4.75243C7.68052 3.88217 7.68972 3.01303 7.56897 2.14614C7.49422 1.60517 7.21018 1.2546 6.7088 1.15268C6.45236 1.10004 6.49031 0.996996 6.6145 0.840193C6.8307 0.569148 7.03309 0.400024 7.43788 0.400024H10.4669C10.9441 0.500826 11.0499 0.731551 11.1154 1.24788L11.1177 4.86779C11.112 5.06715 11.2097 5.66076 11.5455 5.79293C11.8123 5.88701 11.9894 5.65628 12.1504 5.47372C12.8749 4.64491 13.3924 3.66713 13.8558 2.65351C14.0605 2.20774 14.2376 1.74629 14.4078 1.2826C14.5343 0.939875 14.7332 0.770751 15.0931 0.778591L18.0083 0.781952C18.0945 0.781952 18.1819 0.781952 18.2659 0.797632C18.7581 0.887234 18.8926 1.11572 18.7408 1.63205C18.5016 2.44182 18.0359 3.11608 17.5817 3.79369C17.0952 4.51722 16.5754 5.21612 16.0925 5.94413C15.6497 6.60942 15.6854 6.94431 16.2351 7.52112Z" fill="#F6F8F9"/>
</svg>
